<svg xmlns="http://www.w3.org/2000/svg" enable-background="new 0 0 100 100" viewBox="0 0 100 100">
	<path d="M97.5,20.451c-3.497,1.553-7.253,2.598-11.195,3.069c4.026-2.411,7.114-6.23,8.568-10.782
		c-3.763,2.232-7.936,3.855-12.379,4.732c-3.555-3.789-8.619-6.156-14.224-6.156C55.88,11.148,46.354,23.251,49.286,35.241
		C33.089,34.43,18.73,26.67,9.113,14.875c-5.249,8.558-2.269,20.797,6.033,26.022c-3.194-0.102-6.201-0.979-8.828-2.437
		c-0.122,9.521,6.633,17.56,15.634,19.354c-2.766,0.771-5.952,0.892-8.802,0.336c2.481,7.742,9.679,13.38,18.206,13.537
		c-7.71,6.161-18.505,9.373-28.857,8.071c41.628,25.619,87.646-7.946,85.27-49.219C91.581,27.788,94.888,24.357,97.5,20.451z" />
</svg>